<svg id="visual" viewBox="0 0 960 540" width="960" height="540" xmlns="http://www.w3.org/2000/svg" xmlns:xlink="http://www.w3.org/1999/xlink" version="1.1"><rect x="0" y="0" width="960" height="540" fill="#00101c"></rect><defs><linearGradient id="grad1_0" x1="43.8%" y1="0%" x2="100%" y2="100%"><stop offset="14.444444444444446%" stop-color="#00101c" stop-opacity="1"></stop><stop offset="85.55555555555554%" stop-color="#00101c" stop-opacity="1"></stop></linearGradient></defs><defs><linearGradient id="grad2_0" x1="0%" y1="0%" x2="56.3%" y2="100%"><stop offset="14.444444444444446%" stop-color="#00101c" stop-opacity="1"></stop><stop offset="85.55555555555554%" stop-color="#00101c" stop-opacity="1"></stop></linearGradient></defs><g transform="translate(960, 0)"><path d="M0 459C-63.8 455.9 -127.6 452.7 -175.7 424.1C-223.7 395.4 -255.9 341.1 -297.7 297.7C-339.5 254.2 -391 221.6 -419.4 173.7C-447.9 125.9 -453.5 63 -459 0L0 0Z" fill="#FBAE3C"></path></g><g transform="translate(0, 540)"><path d="M0 -459C58.5 -436.2 117 -413.5 156.9 -378.8C196.8 -344.1 218.2 -297.5 265.9 -265.9C313.5 -234.2 387.5 -217.5 424.1 -175.7C460.6 -133.8 459.8 -66.9 459 0L0 0Z" fill="#FBAE3C"></path></g></svg>